PathFileType	4	(X/Y/Z)	Walk9.trc
DataRate	CameraRate	NumFrames	NumMarkers	Units	OrigDataRate	OrigDataStartFrame	OrigNumFrames
200.000000	200.000000	6	59	mm	200.000000	498	587
Frame#	Times		LFHD		RFHD		CLAV		STRN		LASI		RASI		RACR1		RUA1		RElbow		RFA1		RWRR		RWRU		RCAR		LACR1		LUA1		LElbow		LFA1		LWRR		RTH3		RTH2		RTB1		RTB2		RTB4		LTH1		LTH3		LTH2		LTB1		LTB2		LTB4		LMT1		LTB3		LCAR		LLFC		LWRU		LMFC		LToe		LMT5		RTB3		RMFC		RMMAL		RElbowM		LTH4		RTH4		RMT1		RLFC		RToe		LBHD		RCAL		RTH1		RBack		RPSI		C7		T10		LPSI		LElbowM		LMMAL		LLMAL		RBHD		LCAL
			X1	Y1	Z1	X2	Y2	Z2	X3	Y3	Z3	X4	Y4	Z4	X5	Y5	Z5	X6	Y6	Z6	X7	Y7	Z7	X8	Y8	Z8	X9	Y9	Z9	X10	Y10	Z10	X11	Y11	Z11	X12	Y12	Z12	X13	Y13	Z13	X14	Y14	Z14	X15	Y15	Z15	X16	Y16	Z16	X17	Y17	Z17	X18	Y18	Z18	X19	Y19	Z19	X20	Y20	Z20	X21	Y21	Z21	X22	Y22	Z22	X23	Y23	Z23	X24	Y24	Z24	X25	Y25	Z25	X26	Y26	Z26	X27	Y27	Z27	X28	Y28	Z28	X29	Y29	Z29	X30	Y30	Z30	X31	Y31	Z31	X32	Y32	Z32	X33	Y33	Z33	X34	Y34	Z34	X35	Y35	Z35	X36	Y36	Z36	X37	Y37	Z37	X38	Y38	Z38	X39	Y39	Z39	X40	Y40	Z40	X41	Y41	Z41	X42	Y42	Z42	X43	Y43	Z43	X44	Y44	Z44	X45	Y45	Z45	X46	Y46	Z46	X47	Y47	Z47	X48	Y48	Z48	X49	Y49	Z49	X50	Y50	Z50	X51	Y51	Z51	X52	Y52	Z52	X53	Y53	Z53	X54	Y54	Z54	X55	Y55	Z55	X56	Y56	Z56	X57	Y57	Z57	X58	Y58	Z58	X59	Y59	Z59

498	2.49	1196.7	1625.6	-105.55	1198.4	1641.1	-7.9081	1188.3	1381.6	-20.44	1250.5	1224.5	-6.6865	1137.8	967.38	-170.93	1132.3	975.36	184.89	1075.8	1483.7	144.75	1070.5	1322.8	274.87	1093.5	1179.5	331.06	1153.3	1040.1	343.32	1193.2	930.09	269.89	1192.4	932.72	351.96	1239.5	857.83	313.82	1068.6	1433.1	-203.36	1004.8	1264.1	-275.71	955.9	1105.9	-313.59	953.12	965.11	-325.44	992.59	834.93	-272.57	992.12	582.32	207.49	1053.1	667.35	202.75	922.65	345.77	124.85	836.59	307.35	172.05	853.32	294.77	114.45	1126.1	753.59	-194.23	1184.2	595.18	-165.64	1207.2	697.36	-166.36	1278.2	402.49	-99.551	1248.1	307.67	-131.96	1280.3	320.29	-78.983	1354.8	37.522	-46.961	1273.3	234.71	-61.506	979.04	746.69	-304.98	1190.6	512.1	-162.56	936.26	826.63	-320.59	1218.8	514.17	-7.2124	1401.8	38.11	-85.492	1285.8	24.928	-121.44	784.57	244.01	103.56	963.93	474.23	44.165	658.21	187.3	40.901	1043.6	1099.2	243.44	1153.1	674.82	-178.69	996.42	667.66	215.3	686.67	51.059	44.605	950.4	477.44	199.35	720.44	25.348	78.435	1040.8	1558.3	-106.12	572.18	230.15	78.187	998.69	754.08	223.99	931.41	1360.8	107.31	874.59	1014.3	36.97	994.3	1466.5	-23.488	924.68	1152.7	2.6399	890.53	1018.5	-46.932	901.51	1062.4	-209.44	1221.8	85.164	29.01	1190.3	72.633	-54.807	1058.9	1585.3	40.545	1146	44.601	5.5411
499	2.495	1203.1	1626.7	-106.46	1204.8	1642.3	-8.8469	1194.7	1382.8	-21.26	1256.8	1225.7	-7.4135	1143.7	968.46	-171.99	1138.8	976.61	183.84	1082.3	1485.1	143.86	1076.8	1324.3	274.06	1099.3	1180.9	330.07	1158.4	1041	342.6	1197.4	930.61	269.32	1196.8	933.43	351.38	1243.1	857.89	313.28	1075	1434.4	-204.11	1011.9	1265	-276.39	963.69	1106.5	-314.1	962.06	965.74	-325.89	1002.7	835.9	-273.12	1003.5	582.58	208.27	1063.2	668.4	203.09	934.34	346.6	125.98	847.79	309.24	173.34	864.26	296.52	115.68	1130.9	754.06	-194.73	1187.8	595.25	-165.95	1211.5	697.26	-166.87	1280.5	401.95	-99.67	1249.9	307.28	-132.04	1282.1	319.76	-79.05	1354.9	37.464	-46.906	1274.6	234.25	-61.481	989.96	747.69	-305.85	1193.7	512.12	-162.77	946.4	827.21	-321.02	1222.1	514.12	-7.443	1402.1	37.589	-85.467	1285.8	24.984	-121.46	794.86	246.59	104.93	977.12	474	45.101	667.54	191.56	42.552	1049.3	1100.9	242.63	1157.2	675.08	-179.05	1006.6	668.01	215.7	693.01	53.905	45.861	962.87	477.77	200.41	725.56	25.906	79.812	1047.2	1559.5	-107	582.54	236.08	80.176	1007.7	754.52	223.88	937.84	1362.3	106.53	880.98	1015.3	36.398	1000.8	1467.7	-24.395	931.08	1153.9	1.8256	896.8	1019.9	-47.677	910	1062.7	-209.7	1222	85.085	29.139	1190.5	72.691	-54.689	1065.3	1586.6	39.658	1146.1	44.724	5.6123
500	2.5	1209.5	1627.8	-107.31	1211.2	1643.5	-9.7096	1201	1384.1	-22.049	1263.1	1226.8	-8.1519	1149.6	969.51	-173.01	1145.2	977.84	182.8	1088.8	1486.5	143.02	1082.9	1325.8	273.3	1105.1	1182.2	329.16	1163.5	1041.9	341.91	1201.6	931.1	268.79	1201.2	934.12	350.83	1246.7	857.95	312.79	1081.5	1435.7	-204.83	1019.1	1266	-277.07	971.51	1107.2	-314.66	971.03	966.39	-326.36	1012.9	836.92	-273.64	1014.9	582.92	209	1073.4	669.53	203.42	946.24	347.54	126.95	859.31	311.08	174.5	875.47	298.33	116.75	1135.7	754.57	-195.23	1191.3	595.35	-166.27	1215.8	697.17	-167.32	1282.8	401.41	-99.798	1251.6	306.91	-132.13	1283.8	319.26	-79.13	1355	37.428	-46.877	1275.8	233.8	-61.474	1001	748.75	-306.68	1196.6	512.14	-163.01	956.62	827.81	-321.43	1225.1	514.03	-7.6835	1402.5	37.104	-85.475	1285.8	25.026	-121.49	805.47	249.16	106.14	990.35	473.96	45.968	677.25	195.68	44.114	1054.9	1102.5	241.87	1161.3	675.38	-179.42	1016.8	668.43	216.09	700.2	56.8	47.316	975.46	478.17	201.4	731.62	26.68	81.395	1053.6	1560.7	-107.84	593.17	241.63	82.102	1016.7	755	223.78	944.2	1363.7	105.71	887.32	1016.3	35.838	1007.3	1468.9	-25.274	937.43	1155.2	1.0255	903.04	1021.4	-48.411	918.47	1062.9	-210.02	1222.3	85.02	29.243	1190.8	72.746	-54.595	1071.7	1587.9	38.837	1146.2	44.842	5.6702
501	2.505	1215.8	1629	-108.09	1217.6	1644.7	-10.5	1207.3	1385.3	-22.808	1269.4	1228	-8.9008	1155.5	970.53	-173.99	1151.6	979.06	181.8	1095.2	1487.8	142.23	1088.9	1327.2	272.57	1110.9	1183.5	328.3	1168.5	1042.8	341.25	1205.8	931.56	268.29	1205.5	934.78	350.32	1250.3	858.01	312.33	1087.9	1437	-205.52	1026.2	1266.9	-277.76	979.37	1107.8	-315.25	980.06	967.05	-326.85	1023.2	837.97	-274.16	1026.3	583.36	209.68	1083.7	670.74	203.73	958.33	348.6	127.77	871.12	312.85	175.55	886.93	300.17	117.67	1140.4	755.11	-195.7	1194.8	595.46	-166.6	1220	697.1	-167.73	1284.9	400.89	-99.936	1253.3	306.55	-132.24	1285.4	318.77	-79.222	1355.1	37.408	-46.87	1276.9	233.38	-61.482	1012.1	749.85	-307.47	1199.5	512.17	-163.26	966.89	828.41	-321.83	1228	513.91	-7.931	1402.8	36.651	-85.511	1285.8	25.054	-121.54	816.39	251.71	107.2	1003.6	474.11	46.773	687.36	199.61	45.583	1060.5	1104	241.15	1165.4	675.71	-179.8	1027.1	668.92	216.45	708.27	59.709	48.964	988.13	478.66	202.33	738.68	27.685	83.181	1059.9	1561.9	-108.62	604.06	246.77	83.928	1025.8	755.54	223.69	950.49	1365.1	104.86	893.64	1017.3	35.292	1013.8	1470.2	-26.122	943.74	1156.4	0.24635	909.23	1022.8	-49.122	926.92	1063.2	-210.41	1222.5	84.967	29.326	1191	72.801	-54.522	1078.1	1589.2	38.079	1146.3	44.957	5.7173
502	2.51	1222.1	1630.1	-108.8	1224	1645.9	-11.223	1213.6	1386.5	-23.538	1275.6	1229.1	-9.6583	1161.4	971.53	-174.92	1157.9	980.27	180.83	1101.5	1489.1	141.5	1094.8	1328.6	271.88	1116.6	1184.8	327.51	1173.5	1043.6	340.63	1209.8	931.98	267.83	1209.8	935.41	349.85	1253.8	858.07	311.91	1094.3	1438.2	-206.17	1033.3	1267.9	-278.45	987.28	1108.5	-315.89	989.13	967.72	-327.35	1033.5	839.07	-274.67	1037.8	583.9	210.31	1093.9	672.04	204.02	970.61	349.77	128.47	883.21	314.58	176.48	898.63	302.05	118.47	1145.1	755.67	-196.17	1198.2	595.59	-166.92	1224.2	697.03	-168.1	1287	400.38	-100.08	1254.8	306.2	-132.36	1286.9	318.3	-79.322	1355.1	37.399	-46.88	1278	232.97	-61.503	1023.4	750.99	-308.22	1202.4	512.21	-163.53	977.23	829.01	-322.23	1230.7	513.77	-8.182	1403	36.223	-85.572	1285.8	25.071	-121.59	827.62	254.21	108.11	1016.8	474.46	47.523	697.87	203.32	46.958	1065.9	1105.5	240.48	1169.4	676.06	-180.19	1037.4	669.5	216.78	717.25	62.591	50.793	1000.9	479.25	203.2	746.77	28.918	85.158	1066.3	1563.1	-109.35	615.21	251.45	85.624	1034.9	756.15	223.59	956.73	1366.4	103.99	899.92	1018.3	34.763	1020.2	1471.4	-26.934	950.01	1157.6	-0.50783	915.39	1024.2	-49.805	935.35	1063.5	-210.85	1222.7	84.924	29.392	1191.2	72.854	-54.465	1084.4	1590.4	37.382	1146.3	45.068	5.7563
503	2.515	1228.4	1631.3	-109.45	1230.3	1647	-11.881	1219.8	1387.6	-24.237	1281.7	1230.2	-10.421	1167.2	972.51	-175.81	1164.2	981.46	179.9	1107.9	1490.4	140.83	1100.6	1330	271.24	1122.2	1185.9	326.78	1178.5	1044.4	340.03	1213.9	932.38	267.41	1214.1	936	349.41	1257.4	858.13	311.55	1100.7	1439.5	-206.79	1040.5	1268.9	-279.15	995.24	1109.1	-316.57	998.25	968.38	-327.87	1043.9	840.18	-275.18	1049.3	584.56	210.89	1104.2	673.45	204.28	983.05	351.04	129.06	895.54	316.25	177.31	910.57	303.95	119.16	1149.7	756.25	-196.62	1201.5	595.73	-167.26	1228.4	696.97	-168.45	1289	399.89	-100.23	1256.3	305.86	-132.49	1288.4	317.85	-79.43	1355.2	37.397	-46.904	1279	232.58	-61.534	1034.7	752.16	-308.93	1205.1	512.24	-163.8	987.62	829.6	-322.61	1233.2	513.61	-8.4326	1403.3	35.816	-85.653	1285.8	25.079	-121.65	839.15	256.65	108.91	1030	475.02	48.225	708.79	206.77	48.24	1071.3	1106.9	239.85	1173.4	676.42	-180.59	1047.7	670.18	217.09	727.14	65.403	52.785	1013.7	479.97	204.01	755.89	30.365	87.308	1072.6	1564.3	-110.02	626.61	255.65	87.165	1044.1	756.83	223.49	962.9	1367.7	103.11	906.17	1019.4	34.252	1026.6	1472.6	-27.707	956.24	1158.9	-1.235	921.51	1025.6	-50.453	943.77	1063.7	-211.37	1222.9	84.889	29.444	1191.4	72.907	-54.421	1090.8	1591.6	36.744	1146.4	45.179	5.79
